<svg width="35" height="31" viewBox="0 0 35 31" fill="none" xmlns="http://www.w3.org/2000/svg">
<path d="M1 25.9289H33.9417V27.3611C33.9417 28.1209 33.6399 28.8494 33.1027 29.3866C32.5655 29.9238 31.8369 30.2256 31.0772 30.2256H3.86449C3.10478 30.2256 2.37619 29.9238 1.83899 29.3866C1.30179 28.8494 1 28.1209 1 27.3611V25.9289Z" stroke="#D5AD61" stroke-width="1.43225" stroke-linejoin="round"/>
<path d="M15.3225 28.0773H19.6192" stroke="#D5AD61" stroke-width="1.43225" stroke-linejoin="round"/>
<path d="M3.14838 25.2127V9.458C3.14838 9.07815 3.29927 8.71385 3.56787 8.44525C3.83647 8.17665 4.20077 8.02576 4.58062 8.02576H6.72899" stroke="#D5AD61" stroke-width="1.43225" stroke-linejoin="round"/>
<path d="M27.4966 8.02576H30.3611C30.7409 8.02576 31.1052 8.17665 31.3738 8.44525C31.6424 8.71385 31.7933 9.07815 31.7933 9.458V25.2127" stroke="#D5AD61" stroke-width="1.43225" stroke-linejoin="round"/>
<path d="M24.6321 0.864563H9.5935C9.198 0.864563 8.87738 1.18518 8.87738 1.58069V21.6321C8.87738 22.0276 9.198 22.3483 9.5935 22.3483H24.6321C25.0276 22.3483 25.3482 22.0276 25.3482 21.6321V1.58069C25.3482 1.18518 25.0276 0.864563 24.6321 0.864563Z" stroke="#D5AD61" stroke-width="1.43225" stroke-linecap="round" stroke-linejoin="round"/>
<path d="M15.3225 16.6192C16.479 16.1989 17.7466 16.1989 18.9031 16.6192" stroke="#D5AD61" stroke-width="1.43225" stroke-linecap="round" stroke-linejoin="round"/>
<path d="M17.1127 13.898C17.5037 14.1441 17.9466 14.2962 18.4064 14.3422C18.8661 14.3881 19.3303 14.3268 19.7623 14.163C20.1698 13.9779 20.5113 13.6733 20.7415 13.2896C20.9717 12.9058 21.0798 12.4612 21.0514 12.0146C21.0514 10.0524 17.5495 8.67029 17.1127 7.30249C16.6759 8.67029 13.174 10.0524 13.174 12.0146C13.1456 12.4612 13.2536 12.9058 13.4839 13.2896C13.7141 13.6733 14.0556 13.9779 14.463 14.163C14.8951 14.3268 15.3593 14.3881 15.819 14.3422C16.2788 14.2962 16.7216 14.1441 17.1127 13.898V13.898Z" stroke="#D5AD61" stroke-width="1.43225" stroke-linecap="round" stroke-linejoin="round"/>
</svg>
