<svg width="49" height="31" viewBox="0 0 49 31" fill="none" xmlns="http://www.w3.org/2000/svg">
<path d="M35.0597 13.1017C34.4633 13.5875 33.9769 14.1946 33.6329 14.8826C33.2889 15.5707 33.0951 16.324 33.0643 17.0926C33.0978 18.11 33.3903 19.1021 33.9141 19.975C34.4378 20.8479 35.1755 21.5728 36.0574 22.0812L40.0483 24.0767V27.0699L45.0369 29.0653L47.0324 27.0699V9.1108C46.9102 8.11618 46.5806 7.15826 46.065 6.29896C45.5494 5.43966 44.8593 4.69809 44.0392 4.12218L46.0347 1.129H35.389C32.5081 1.08655 29.6518 1.66317 27.0131 2.81987C24.3743 3.97658 22.0147 5.6864 20.0938 7.83371C15.1052 12.2237 13.3392 14.0994 7.1234 14.0994H4.13023" stroke="url(#paint0_linear)" stroke-width="2" stroke-miterlimit="10"/>
<path d="M0.139317 21.0835H8.00139C16.7215 21.0835 18.9165 16.9729 22.0893 14.0994C25.262 11.226 27.2475 8.11308 33.0642 8.11308" stroke="url(#paint1_linear)" stroke-width="2" stroke-miterlimit="10"/>
<path d="M42.0438 12.104L44.0392 14.0995" stroke="url(#paint2_linear)" stroke-width="2" stroke-miterlimit="10"/>
<path d="M21.0915 23.4182C17.5396 25.7717 13.3796 27.0405 9.11883 27.0699H3.13248" stroke="url(#paint3_linear)" stroke-width="2" stroke-miterlimit="10"/>
<path d="M35.0597 21.1633L30.071 26.1519V29.0653" stroke="url(#paint4_linear)" stroke-width="2" stroke-miterlimit="10"/>
<defs>
<linearGradient id="paint0_linear" x1="25.5813" y1="1.12682" x2="25.5813" y2="29.0653" gradientUnits="userSpaceOnUse">
<stop stop-color="#F6C361"/>
<stop offset="1" stop-color="#DBA53F"/>
</linearGradient>
<linearGradient id="paint1_linear" x1="16.6018" y1="8.11308" x2="16.6018" y2="21.0835" gradientUnits="userSpaceOnUse">
<stop stop-color="#F6C361"/>
<stop offset="1" stop-color="#DBA53F"/>
</linearGradient>
<linearGradient id="paint2_linear" x1="43.0415" y1="12.104" x2="43.0415" y2="14.0995" gradientUnits="userSpaceOnUse">
<stop stop-color="#F6C361"/>
<stop offset="1" stop-color="#DBA53F"/>
</linearGradient>
<linearGradient id="paint3_linear" x1="12.112" y1="23.4182" x2="12.112" y2="27.0699" gradientUnits="userSpaceOnUse">
<stop stop-color="#F6C361"/>
<stop offset="1" stop-color="#DBA53F"/>
</linearGradient>
<linearGradient id="paint4_linear" x1="32.5653" y1="21.1633" x2="32.5653" y2="29.0653" gradientUnits="userSpaceOnUse">
<stop stop-color="#F6C361"/>
<stop offset="1" stop-color="#DBA53F"/>
</linearGradient>
</defs>
</svg>
