<svg width="49" height="37" viewBox="0 0 49 37" fill="none" xmlns="http://www.w3.org/2000/svg">
<path d="M43.6924 15.862C43.6924 21.1001 35.2018 25.3404 24.7357 25.3404C14.2695 25.3404 5.77889 21.1001 5.77889 15.862M15.7561 5.45576C8.53261 7.17185 3.2347 10.8834 1.78799 15.3632V24.3427C2.78572 29.7703 12.1344 35.3177 24.7357 35.3177C37.3369 35.3177 46.496 29.7703 47.6833 24.3427V15.3632C46.3763 10.8734 40.9986 7.1519 33.7152 5.45576H15.7561Z" stroke="url(#paint0_linear)" stroke-width="2" stroke-miterlimit="10"/>
<path d="M27.7289 10.5342C34.0046 11.2027 38.7039 13.9165 38.7039 17.179C38.6815 18.1122 38.3279 19.007 37.7061 19.7033" stroke="url(#paint1_linear)" stroke-width="2" stroke-miterlimit="10"/>
<path d="M12.3739 20.3518C11.8982 19.9655 11.5093 19.4833 11.2325 18.9366C10.9557 18.3899 10.7973 17.7911 10.7675 17.179C10.7675 13.9165 15.4668 11.1927 21.7425 10.5342" stroke="url(#paint2_linear)" stroke-width="2" stroke-miterlimit="10"/>
<path d="M26.7311 22.3472V14.3654L24.7357 12.37L22.7402 14.3654V22.3472" stroke="url(#paint3_linear)" stroke-width="2" stroke-miterlimit="10"/>
<path d="M24.7357 13.3677V1.395" stroke="url(#paint4_linear)" stroke-width="2" stroke-miterlimit="10"/>
<path d="M26.7311 1.395H22.7402" stroke="url(#paint5_linear)" stroke-width="2" stroke-miterlimit="10"/>
<path d="M31.7197 4.3882H17.7516" stroke="url(#paint6_linear)" stroke-width="2" stroke-miterlimit="10"/>
<path d="M17.7516 2.39275V6.38364" stroke="url(#paint7_linear)" stroke-width="2" stroke-miterlimit="10"/>
<path d="M31.7198 2.39275V6.38364" stroke="url(#paint8_linear)" stroke-width="2" stroke-miterlimit="10"/>
<defs>
<linearGradient id="paint0_linear" x1="24.7357" y1="5.45576" x2="24.7357" y2="35.3177" gradientUnits="userSpaceOnUse">
<stop stop-color="#F6C361"/>
<stop offset="1" stop-color="#DBA53F"/>
</linearGradient>
<linearGradient id="paint1_linear" x1="33.2164" y1="10.5342" x2="33.2164" y2="19.7033" gradientUnits="userSpaceOnUse">
<stop stop-color="#F6C361"/>
<stop offset="1" stop-color="#DBA53F"/>
</linearGradient>
<linearGradient id="paint2_linear" x1="16.255" y1="10.5342" x2="16.255" y2="20.3518" gradientUnits="userSpaceOnUse">
<stop stop-color="#F6C361"/>
<stop offset="1" stop-color="#DBA53F"/>
</linearGradient>
<linearGradient id="paint3_linear" x1="24.7357" y1="12.37" x2="24.7357" y2="22.3472" gradientUnits="userSpaceOnUse">
<stop stop-color="#F6C361"/>
<stop offset="1" stop-color="#DBA53F"/>
</linearGradient>
<linearGradient id="paint4_linear" x1="25.2357" y1="1.395" x2="25.2357" y2="13.3677" gradientUnits="userSpaceOnUse">
<stop stop-color="#F6C361"/>
<stop offset="1" stop-color="#DBA53F"/>
</linearGradient>
<linearGradient id="paint5_linear" x1="24.7357" y1="1.395" x2="24.7357" y2="2.395" gradientUnits="userSpaceOnUse">
<stop stop-color="#F6C361"/>
<stop offset="1" stop-color="#DBA53F"/>
</linearGradient>
<linearGradient id="paint6_linear" x1="24.7357" y1="4.3882" x2="24.7357" y2="5.3882" gradientUnits="userSpaceOnUse">
<stop stop-color="#F6C361"/>
<stop offset="1" stop-color="#DBA53F"/>
</linearGradient>
<linearGradient id="paint7_linear" x1="18.2516" y1="2.39275" x2="18.2516" y2="6.38364" gradientUnits="userSpaceOnUse">
<stop stop-color="#F6C361"/>
<stop offset="1" stop-color="#DBA53F"/>
</linearGradient>
<linearGradient id="paint8_linear" x1="32.2198" y1="2.39275" x2="32.2198" y2="6.38364" gradientUnits="userSpaceOnUse">
<stop stop-color="#F6C361"/>
<stop offset="1" stop-color="#DBA53F"/>
</linearGradient>
</defs>
</svg>
