<svg width="48" height="47" viewBox="0 0 48 47" fill="none" xmlns="http://www.w3.org/2000/svg">
<path d="M39.6495 38.9177V30.9359L36.6563 27.9427V1.00415H4.72914V27.9427L1.73596 30.9359V38.9177H39.6495Z" stroke="url(#paint0_linear)" stroke-width="2" stroke-miterlimit="10"/>
<path d="M16.7018 14.9723H8.72003V26.945H16.7018V14.9723Z" stroke="url(#paint1_linear)" stroke-width="2" stroke-miterlimit="10"/>
<path d="M24.6837 14.9723H16.7019V26.945H24.6837V14.9723Z" stroke="url(#paint2_linear)" stroke-width="2" stroke-miterlimit="10"/>
<path d="M32.6654 14.9723H24.6836V26.945H32.6654V14.9723Z" stroke="url(#paint3_linear)" stroke-width="2" stroke-miterlimit="10"/>
<path d="M32.6654 4.99498H8.72003V10.9813H32.6654V4.99498Z" stroke="url(#paint4_linear)" stroke-width="2" stroke-miterlimit="10"/>
<path d="M35.6586 40.9131V45.9017H4.72913V40.9131" stroke="url(#paint5_linear)" stroke-width="2" stroke-miterlimit="10"/>
<path d="M36.6563 17.9655H44.6381C45.1674 17.9655 45.6749 18.1757 46.0491 18.5499C46.4233 18.9241 46.6336 19.4317 46.6336 19.9609V21.9564C46.6336 22.4856 46.4233 22.9932 46.0491 23.3674C45.6749 23.7416 45.1674 23.9518 44.6381 23.9518H36.6563V17.9655Z" stroke="url(#paint6_linear)" stroke-width="2" stroke-miterlimit="10"/>
<path d="M43.6404 8.9859C45.2935 8.9859 46.6336 7.64581 46.6336 5.99273C46.6336 4.33966 45.2935 2.99957 43.6404 2.99957C41.9873 2.99957 40.6472 4.33966 40.6472 5.99273C40.6472 7.64581 41.9873 8.9859 43.6404 8.9859Z" stroke="url(#paint7_linear)" stroke-width="2" stroke-miterlimit="10"/>
<path d="M43.6404 8.9859V17.9654" stroke="url(#paint8_linear)" stroke-width="2" stroke-miterlimit="10"/>
<defs>
<linearGradient id="paint0_linear" x1="20.6927" y1="1.00415" x2="20.6927" y2="38.9177" gradientUnits="userSpaceOnUse">
<stop stop-color="#F6C361"/>
<stop offset="1" stop-color="#DBA53F"/>
</linearGradient>
<linearGradient id="paint1_linear" x1="12.7109" y1="14.9723" x2="12.7109" y2="26.945" gradientUnits="userSpaceOnUse">
<stop stop-color="#F6C361"/>
<stop offset="1" stop-color="#DBA53F"/>
</linearGradient>
<linearGradient id="paint2_linear" x1="20.6928" y1="14.9723" x2="20.6928" y2="26.945" gradientUnits="userSpaceOnUse">
<stop stop-color="#F6C361"/>
<stop offset="1" stop-color="#DBA53F"/>
</linearGradient>
<linearGradient id="paint3_linear" x1="28.6745" y1="14.9723" x2="28.6745" y2="26.945" gradientUnits="userSpaceOnUse">
<stop stop-color="#F6C361"/>
<stop offset="1" stop-color="#DBA53F"/>
</linearGradient>
<linearGradient id="paint4_linear" x1="20.6927" y1="4.99498" x2="20.6927" y2="10.9813" gradientUnits="userSpaceOnUse">
<stop stop-color="#F6C361"/>
<stop offset="1" stop-color="#DBA53F"/>
</linearGradient>
<linearGradient id="paint5_linear" x1="20.1939" y1="40.9131" x2="20.1939" y2="45.9017" gradientUnits="userSpaceOnUse">
<stop stop-color="#F6C361"/>
<stop offset="1" stop-color="#DBA53F"/>
</linearGradient>
<linearGradient id="paint6_linear" x1="41.645" y1="17.9655" x2="41.645" y2="23.9518" gradientUnits="userSpaceOnUse">
<stop stop-color="#F6C361"/>
<stop offset="1" stop-color="#DBA53F"/>
</linearGradient>
<linearGradient id="paint7_linear" x1="43.6404" y1="2.99957" x2="43.6404" y2="8.9859" gradientUnits="userSpaceOnUse">
<stop stop-color="#F6C361"/>
<stop offset="1" stop-color="#DBA53F"/>
</linearGradient>
<linearGradient id="paint8_linear" x1="44.1404" y1="8.9859" x2="44.1404" y2="17.9654" gradientUnits="userSpaceOnUse">
<stop stop-color="#F6C361"/>
<stop offset="1" stop-color="#DBA53F"/>
</linearGradient>
</defs>
</svg>
