<?xml version="1.0" standalone="no"?>
<!DOCTYPE svg PUBLIC "-//W3C//DTD SVG 20010904//EN"
 "http://www.w3.org/TR/2001/REC-SVG-20010904/DTD/svg10.dtd">
<svg version="1.0" xmlns="http://www.w3.org/2000/svg"
 width="584.000000pt" height="584.000000pt" viewBox="0 0 584.000000 584.000000"
 preserveAspectRatio="xMidYMid meet">
<metadata>
Created by potrace 1.14, written by Peter Selinger 2001-2017
</metadata>
<g transform="translate(0.000000,584.000000) scale(0.100000,-0.100000)"
fill="#000000" stroke="none">
<path d="M2335 5634 c-50 -12 -108 -38 -132 -60 -20 -18 -24 -29 -19 -49 7
-26 91 -159 158 -249 18 -25 51 -70 73 -100 24 -34 50 -58 65 -61 80 -18 176
-95 226 -181 16 -27 29 -51 30 -54 0 -3 7 -21 15 -40 62 -142 57 -458 -12
-848 -17 -96 -31 -96 -122 -3 -77 78 -241 233 -287 272 -14 11 -38 32 -55 47
-57 52 -277 212 -290 212 -7 0 -15 4 -17 8 -3 9 -107 70 -188 112 -140 71
-354 141 -475 155 -64 8 -202 8 -246 1 -153 -25 -254 -64 -349 -132 -79 -56
-78 -55 -7 -196 82 -158 121 -228 173 -308 73 -110 77 -113 129 -91 146 62
309 -61 434 -330 72 -153 113 -339 112 -503 -1 -82 -5 -105 -23 -137 -12 -22
-25 -39 -30 -39 -4 0 -8 -7 -8 -15 0 -8 -4 -15 -10 -15 -5 0 -10 -4 -10 -9 0
-5 -25 -49 -56 -97 -163 -259 -270 -551 -289 -789 -9 -103 -9 -84 0 -205 10
-151 17 -205 47 -335 19 -87 64 -240 77 -260 3 -5 6 -15 7 -21 3 -22 95 -206
131 -262 166 -260 373 -447 658 -592 174 -89 438 -177 620 -207 17 -3 62 -10
100 -17 104 -17 310 -10 424 15 70 15 248 82 356 134 335 161 593 384 763 662
55 89 125 223 117 223 -3 0 1 10 9 23 16 25 78 215 95 292 21 90 28 132 39
220 13 102 14 111 15 210 0 86 -11 233 -19 246 -2 4 -6 24 -10 44 -14 90 -58
243 -111 390 -45 122 -48 136 -48 230 0 58 7 129 17 170 9 39 19 95 23 125 3
30 8 66 11 80 8 42 11 63 19 110 4 25 9 54 12 65 2 11 6 31 9 45 13 63 65 196
105 267 27 47 73 106 120 153 160 161 302 183 444 70 l38 -30 62 62 c35 35 85
84 113 111 56 52 56 48 15 156 -82 219 -291 410 -518 474 -192 53 -411 39
-571 -37 -94 -44 -133 -73 -215 -158 -55 -56 -199 -253 -199 -272 0 -9 -59
-70 -64 -65 -3 2 -7 26 -11 53 -19 161 -84 375 -162 530 -70 142 -195 294
-329 402 -27 21 -51 41 -54 44 -22 22 -171 130 -179 130 -6 0 -11 3 -11 8 0
27 -352 184 -444 197 -11 2 -42 7 -67 13 -49 10 -190 13 -224 6z m-140 -3095
c132 -31 268 -132 338 -250 46 -80 48 -98 5 -66 -55 40 -228 114 -255 109 -2
-1 -17 4 -35 9 -26 8 -158 21 -213 21 -9 0 -52 -6 -137 -18 -60 -8 -176 -51
-254 -94 -40 -22 -76 -40 -79 -40 -7 0 32 77 59 114 42 59 150 156 173 156 5
0 14 5 20 11 14 14 113 50 113 42 0 -3 6 -1 13 4 6 5 30 11 52 12 22 2 41 4
43 5 5 6 111 -5 157 -15z m1510 -1 c33 -6 70 -18 82 -25 12 -8 25 -14 28 -12
15 5 138 -86 176 -130 44 -51 103 -150 95 -158 -3 -3 -17 4 -33 15 -175 123
-442 165 -686 107 -72 -17 -202 -73 -249 -108 -34 -25 -42 -20 -23 13 8 14 17
32 21 40 46 95 184 208 297 244 108 34 175 37 292 14z m-1673 -1055 c70 -49
211 -117 313 -151 82 -27 133 -40 250 -60 52 -8 354 -9 425 0 98 12 241 47
315 77 48 20 237 114 248 125 31 28 77 56 77 46 0 -6 -6 -26 -14 -45 -8 -18
-12 -35 -10 -38 3 -2 -2 -10 -11 -17 -8 -7 -15 -20 -15 -30 0 -10 -7 -23 -15
-30 -8 -7 -15 -17 -15 -23 0 -24 -110 -144 -190 -208 -40 -32 -191 -121 -204
-120 -3 0 -21 -6 -40 -14 -131 -55 -388 -69 -565 -31 -184 40 -384 164 -487
303 -16 21 -32 40 -36 43 -24 18 -107 227 -85 213 7 -4 33 -22 59 -40z"/>
<path d="M1950 5328 c-45 -13 -97 -69 -111 -122 -20 -69 -14 -193 11 -261 88
-232 280 -331 396 -203 32 35 79 142 69 158 -3 5 -2 11 3 14 14 8 1 153 -16
181 -4 5 -7 16 -8 23 -4 23 -53 91 -95 132 -72 70 -172 101 -249 78z"/>
<path d="M230 4314 c-69 -15 -135 -58 -170 -110 -27 -38 -31 -54 -31 -102 1
-31 3 -64 4 -72 30 -128 164 -288 292 -350 122 -59 155 -67 250 -66 140 2 219
83 229 236 6 103 -68 261 -162 346 -39 35 -140 94 -161 94 -9 0 -21 4 -27 9
-22 21 -157 30 -224 15z"/>
<path d="M5589 4065 c-2 -2 -17 -5 -34 -7 -52 -7 -125 -46 -169 -91 -55 -57
-87 -127 -93 -202 -13 -172 122 -237 299 -143 52 28 138 102 138 119 0 4 6 14
13 21 25 25 55 122 52 166 -4 52 -23 83 -68 111 -30 18 -128 37 -138 26z"/>
</g>
</svg>
