<svg width="73" height="68" viewBox="0 0 73 68" fill="none" xmlns="http://www.w3.org/2000/svg">
<path fill-rule="evenodd" clip-rule="evenodd" d="M55.4982 29.8154C55.9006 26.9752 56.3839 23.564 59.0186 21.0615C61.9069 18.3176 63.751 19.815 64.5506 20.4642C64.7856 20.6551 64.9304 20.7726 64.9849 20.6877C65.8541 19.7505 66.7718 18.8594 67.7344 18.0183C67.225 15.8633 66.0163 13.9376 64.297 12.542C62.5778 11.1463 60.4449 10.3592 58.2312 10.3036C52.5064 10.1035 50.1963 13.8057 48.836 15.9856C48.3822 16.7129 48.0341 17.2708 47.7002 17.4577C46.465 8.79814 43.0822 6.24485 39.386 3.45494C39.3279 3.41104 39.2696 3.36709 39.2113 3.32306C35.4474 0.480099 29.1876 -1.28174 27.1988 1.14745C26.9319 1.50783 30.6958 6.48635 30.6958 6.48635C30.6958 6.48635 34.4064 6.86007 34.9537 12.5727C34.9714 15.5262 34.6852 18.4736 34.0994 21.3685C33.9969 21.3628 33.9405 21.4227 33.8878 21.4788C33.8171 21.5541 33.7529 21.6225 33.5922 21.5154C33.2579 21.218 32.9456 20.8968 32.6578 20.5543C28.8138 16.7503 25.1167 13.507 20.0314 11.5316C12.3567 8.54178 7.79196 12.7195 8.01886 13.16C8.37924 13.9074 11.5159 20.1272 12.1032 19.8336C14.0786 18.8726 15.3197 19.6066 16.9614 21.8757C18.8011 24.6958 19.6423 28.0512 19.3507 31.4056C16.2941 35.7168 13.7048 40.6419 14.0118 45.9808C14.7726 58.9009 22.8477 65.9349 35.2339 67.6567C35.789 67.7035 36.3472 67.7035 36.9023 67.6567C38.3536 67.679 39.798 67.4533 41.1734 66.9893C50.9302 63.519 56.4026 56.8054 57.2836 46.4213C57.5631 42.3883 56.2365 38.6739 54.9055 34.9471L54.8943 34.9159C54.8871 34.7737 54.8871 34.6311 54.8943 34.4888C54.8208 33.9754 54.8208 33.4541 54.8943 32.9406C55.1793 32.0661 55.3319 30.9895 55.4982 29.8154ZM28.9474 9.39604C28.5737 11.5049 26.9319 12.6795 25.17 11.5049V11.4782C24.3311 10.8675 23.6727 10.0417 23.2639 9.08794C22.8552 8.13419 22.7113 7.08788 22.8476 6.05923C23.1012 4.0438 24.6095 3.24297 26.5181 4.15058C27.4329 4.64784 28.1631 5.42652 28.6007 6.37132C29.0382 7.31612 29.1599 8.37675 28.9474 9.39604ZM69.5095 19.7401C71.2713 19.3931 72.7796 20.2607 72.4193 22.0626V22.0358C72.2073 22.9181 71.7563 23.7249 71.1158 24.3677C70.4754 25.0105 69.6703 25.4645 68.7889 25.6797C67.1338 26.1335 65.9993 25.1991 66.1194 23.3706C66.2175 22.4808 66.6006 21.6465 67.2115 20.9923C67.8225 20.338 68.6285 19.8988 69.5095 19.7401ZM9.68727 20.4742C10.675 22.9702 9.68727 25.3994 7.01782 25.3994L6.95102 25.3726C5.63152 25.2719 4.36264 24.822 3.27434 24.0691C2.18604 23.3162 1.31763 22.2874 0.758045 21.0882C-0.37647 18.7258 0.758045 16.8037 3.42749 16.4701C4.76176 16.3814 6.08931 16.7223 7.21578 17.4428C8.34225 18.1634 9.20836 19.2257 9.68727 20.4742ZM21.9527 39.7926C20.8124 40.5917 19.9458 41.7225 19.4706 43.0312C21.3306 41.7038 23.5588 40.9902 25.8439 40.9902C28.1291 40.9902 30.3572 41.7038 32.2173 43.0312C31.7421 41.7225 30.8754 40.5917 29.7352 39.7926C28.5949 38.9935 27.2363 38.5648 25.8439 38.5648C24.4515 38.5648 23.0929 38.9935 21.9527 39.7926ZM44.8519 40.9885C44.8447 40.9887 44.8375 40.9889 44.8303 40.9891H44.8704C44.8642 40.9889 44.8581 40.9887 44.8519 40.9885ZM51.197 43.0312C49.3723 41.6549 47.1364 40.9352 44.8519 40.9885C42.5527 40.9254 40.3002 41.6456 38.4638 43.0312C38.9417 41.7269 39.8084 40.6008 40.9471 39.8053C42.0857 39.0098 43.4413 38.5832 44.8303 38.5832C46.2194 38.5832 47.5749 39.0098 48.7136 39.8053C49.8523 40.6008 50.7192 41.7269 51.197 43.0312ZM24.5292 51.3599C27.5805 53.6473 31.3149 54.8372 35.127 54.7367H35.167C38.992 54.841 42.7403 53.6512 45.8048 51.3599C44.737 55.591 40.3858 58.7676 35.127 58.7676C29.8682 58.7676 25.5303 55.591 24.5292 51.3599Z" fill="#94E000"/>
</svg>
