<svg width="153" height="68" viewBox="0 0 153 68" fill="none" xmlns="http://www.w3.org/2000/svg">
<path d="M0 66.8426L1.44144 58.6607H5.17873C5.97159 58.73 6.76402 58.5224 7.42114 58.0735C7.93606 57.619 8.26807 56.9928 8.35538 56.3116L12.5064 32.7538H23.7581L19.2601 58.207C19.0117 60.7648 17.8281 63.141 15.9365 64.8806C13.789 66.3288 11.2198 67.0192 8.63562 66.8426H0Z" fill="#94E000"/>
<path d="M66.1089 66.8426L72.1286 32.7538H83.1668L81.832 40.6153L89.6669 32.7538H103.014L88.252 48.3433L97.595 66.8426H84.448L79.1091 56.3116L77.2539 66.8426H66.1089Z" fill="#94E000"/>
<path d="M98.5693 66.8426L104.589 32.7538H124.677L123.102 41.6964H113.892L113.225 45.4737H122.274L120.779 53.9626H111.73L111.036 57.9667H120.592L119.017 66.9093L98.5693 66.8426Z" fill="#94E000"/>
<path d="M122.087 66.8426L128.093 32.7538H139.852C144.355 32.7538 147.812 33.9194 150.223 36.2508C152.635 38.5821 153.475 41.8433 152.746 46.0343C152.528 47.2701 152.151 48.4725 151.625 49.6113C151.196 50.5868 150.649 51.5058 149.996 52.3475C149.484 52.9875 148.931 53.5938 148.341 54.1627C147.94 54.5858 147.492 54.962 147.007 55.2839L146.499 55.6042L150.904 66.8426H138.117L134.54 58.207L133.005 66.8426H122.087ZM137.356 41.95L136.022 49.5179H136.582C137.826 49.5617 139.055 49.2416 140.119 48.5969C140.609 48.278 141.022 47.8559 141.331 47.3601C141.64 46.8644 141.837 46.3071 141.908 45.7273C142.058 45.2263 142.065 44.6934 141.928 44.1886C141.792 43.6839 141.516 43.2275 141.134 42.871C140.201 42.1991 139.064 41.8734 137.917 41.95H137.356Z" fill="#94E000"/>
<path fill-rule="evenodd" clip-rule="evenodd" d="M65.4982 29.8154C65.9006 26.9752 66.3839 23.564 69.0186 21.0615C71.9069 18.3176 73.751 19.815 74.5506 20.4642C74.7856 20.6551 74.9304 20.7726 74.9849 20.6877C75.8541 19.7505 76.7718 18.8594 77.7344 18.0183C77.225 15.8633 76.0163 13.9376 74.297 12.542C72.5778 11.1463 70.4449 10.3592 68.2312 10.3036C62.5064 10.1035 60.1963 13.8057 58.836 15.9856C58.3822 16.7129 58.0341 17.2708 57.7002 17.4577C56.465 8.79814 53.0822 6.24485 49.386 3.45494C49.3279 3.41104 49.2696 3.36709 49.2113 3.32306C45.4474 0.480099 39.1876 -1.28174 37.1988 1.14745C36.9319 1.50783 40.6958 6.48635 40.6958 6.48635C40.6958 6.48635 44.4064 6.86007 44.9537 12.5727C44.9714 15.5262 44.6852 18.4736 44.0994 21.3685C43.9969 21.3628 43.9405 21.4227 43.8878 21.4788C43.8171 21.5541 43.7529 21.6225 43.5922 21.5154C43.2579 21.218 42.9456 20.8968 42.6578 20.5543C38.8138 16.7503 35.1167 13.507 30.0314 11.5316C22.3567 8.54178 17.792 12.7195 18.0189 13.16C18.3792 13.9074 21.5159 20.1272 22.1032 19.8336C24.0786 18.8726 25.3197 19.6066 26.9614 21.8757C28.8011 24.6958 29.6423 28.0512 29.3507 31.4056C26.2941 35.7168 23.7048 40.6419 24.0118 45.9808C24.7726 58.9009 32.8477 65.9349 45.2339 67.6567C45.789 67.7035 46.3472 67.7035 46.9023 67.6567C48.3536 67.679 49.798 67.4533 51.1734 66.9893C60.9302 63.519 66.4026 56.8054 67.2836 46.4213C67.5631 42.3883 66.2365 38.6739 64.9055 34.9471L64.8943 34.9159C64.8871 34.7737 64.8871 34.6311 64.8943 34.4888C64.8208 33.9754 64.8208 33.4541 64.8943 32.9406C65.1793 32.0661 65.3319 30.9895 65.4982 29.8154ZM38.9474 9.39604C38.5737 11.5049 36.9319 12.6795 35.17 11.5049V11.4782C34.3311 10.8675 33.6727 10.0417 33.2639 9.08794C32.8552 8.13419 32.7113 7.08788 32.8476 6.05923C33.1012 4.0438 34.6095 3.24297 36.5181 4.15058C37.4329 4.64784 38.1631 5.42652 38.6007 6.37132C39.0382 7.31612 39.1599 8.37675 38.9474 9.39604ZM79.5095 19.7401C81.2713 19.3931 82.7796 20.2607 82.4193 22.0626V22.0358C82.2073 22.9181 81.7563 23.7249 81.1158 24.3677C80.4754 25.0105 79.6703 25.4645 78.7889 25.6797C77.1338 26.1335 75.9993 25.1991 76.1194 23.3706C76.2175 22.4808 76.6006 21.6465 77.2115 20.9923C77.8225 20.338 78.6285 19.8988 79.5095 19.7401ZM19.6873 20.4742C20.675 22.9702 19.6873 25.3994 17.0178 25.3994L16.951 25.3726C15.6315 25.2719 14.3626 24.822 13.2743 24.0691C12.186 23.3162 11.3176 22.2874 10.758 21.0882C9.62353 18.7258 10.758 16.8037 13.4275 16.4701C14.7618 16.3814 16.0893 16.7223 17.2158 17.4428C18.3423 18.1634 19.2084 19.2257 19.6873 20.4742ZM31.9527 39.7926C30.8124 40.5917 29.9458 41.7225 29.4706 43.0312C31.3306 41.7038 33.5588 40.9902 35.8439 40.9902C38.1291 40.9902 40.3572 41.7038 42.2173 43.0312C41.7421 41.7225 40.8754 40.5917 39.7352 39.7926C38.5949 38.9935 37.2363 38.5648 35.8439 38.5648C34.4515 38.5648 33.0929 38.9935 31.9527 39.7926ZM54.8519 40.9885C54.8447 40.9887 54.8375 40.9889 54.8303 40.9891H54.8704C54.8642 40.9889 54.8581 40.9887 54.8519 40.9885ZM61.197 43.0312C59.3723 41.6549 57.1364 40.9352 54.8519 40.9885C52.5527 40.9254 50.3002 41.6456 48.4638 43.0312C48.9417 41.7269 49.8084 40.6008 50.9471 39.8053C52.0857 39.0098 53.4413 38.5832 54.8303 38.5832C56.2194 38.5832 57.5749 39.0098 58.7136 39.8053C59.8523 40.6008 60.7192 41.7269 61.197 43.0312ZM34.5292 51.3599C37.5805 53.6473 41.3149 54.8372 45.127 54.7367H45.167C48.992 54.841 52.7403 53.6512 55.8048 51.3599C54.737 55.591 50.3858 58.7676 45.127 58.7676C39.8682 58.7676 35.5303 55.591 34.5292 51.3599Z" fill="#94E000"/>
</svg>
